<svg id="visual" viewBox="0 0 900 600" width="900" height="600" xmlns="http://www.w3.org/2000/svg" xmlns:xlink="http://www.w3.org/1999/xlink" version="1.1"><rect x="0" y="0" width="900" height="600" fill="#ffffff"></rect><path d="M0 470L21.5 464.7C43 459.3 86 448.7 128.8 441.2C171.7 433.7 214.3 429.3 257.2 428.3C300 427.3 343 429.7 385.8 431C428.7 432.3 471.3 432.7 514.2 436.8C557 441 600 449 642.8 432.5C685.7 416 728.3 375 771.2 363.8C814 352.7 857 371.3 878.5 380.7L900 390L900 601L878.5 601C857 601 814 601 771.2 601C728.3 601 685.7 601 642.8 601C600 601 557 601 514.2 601C471.3 601 428.7 601 385.8 601C343 601 300 601 257.2 601C214.3 601 171.7 601 128.8 601C86 601 43 601 21.5 601L0 601Z" fill="#a13dff"></path><path d="M0 444L21.5 446.3C43 448.7 86 453.3 128.8 460.5C171.7 467.7 214.3 477.3 257.2 485.8C300 494.3 343 501.7 385.8 497.8C428.7 494 471.3 479 514.2 465.2C557 451.3 600 438.7 642.8 438.8C685.7 439 728.3 452 771.2 449.5C814 447 857 429 878.5 420L900 411L900 601L878.5 601C857 601 814 601 771.2 601C728.3 601 685.7 601 642.8 601C600 601 557 601 514.2 601C471.3 601 428.7 601 385.8 601C343 601 300 601 257.2 601C214.3 601 171.7 601 128.8 601C86 601 43 601 21.5 601L0 601Z" fill="#c911c4"></path><path d="M0 451L21.5 450.3C43 449.7 86 448.3 128.8 453.3C171.7 458.3 214.3 469.7 257.2 470.7C300 471.7 343 462.3 385.8 465.8C428.7 469.3 471.3 485.7 514.2 498.8C557 512 600 522 642.8 528.3C685.7 534.7 728.3 537.3 771.2 535.5C814 533.7 857 527.3 878.5 524.2L900 521L900 601L878.5 601C857 601 814 601 771.2 601C728.3 601 685.7 601 642.8 601C600 601 557 601 514.2 601C471.3 601 428.7 601 385.8 601C343 601 300 601 257.2 601C214.3 601 171.7 601 128.8 601C86 601 43 601 21.5 601L0 601Z" fill="#d10090"></path><path d="M0 527L21.5 524.5C43 522 86 517 128.8 524C171.7 531 214.3 550 257.2 554.7C300 559.3 343 549.7 385.8 547.2C428.7 544.7 471.3 549.3 514.2 545.5C557 541.7 600 529.3 642.8 521.8C685.7 514.3 728.3 511.7 771.2 515.5C814 519.3 857 529.7 878.5 534.8L900 540L900 601L878.5 601C857 601 814 601 771.2 601C728.3 601 685.7 601 642.8 601C600 601 557 601 514.2 601C471.3 601 428.7 601 385.8 601C343 601 300 601 257.2 601C214.3 601 171.7 601 128.8 601C86 601 43 601 21.5 601L0 601Z" fill="#c62368"></path></svg>