<svg id="visual" viewBox="0 0 900 600" width="900" height="600" xmlns="http://www.w3.org/2000/svg" xmlns:xlink="http://www.w3.org/1999/xlink" version="1.1"><rect x="0" y="0" width="900" height="600" fill="#ffffff"></rect><path d="M0 491L16.7 485.5C33.3 480 66.7 469 100 467.3C133.3 465.7 166.7 473.3 200 481.3C233.3 489.3 266.7 497.7 300 503.3C333.3 509 366.7 512 400 502.8C433.3 493.7 466.7 472.3 500 467.2C533.3 462 566.7 473 600 476.3C633.3 479.7 666.7 475.3 700 479.3C733.3 483.3 766.7 495.7 800 492.2C833.3 488.7 866.7 469.3 883.3 459.7L900 450L900 601L883.3 601C866.7 601 833.3 601 800 601C766.7 601 733.3 601 700 601C666.7 601 633.3 601 600 601C566.7 601 533.3 601 500 601C466.7 601 433.3 601 400 601C366.7 601 333.3 601 300 601C266.7 601 233.3 601 200 601C166.7 601 133.3 601 100 601C66.7 601 33.3 601 16.7 601L0 601Z" fill="#12d2af"></path><path d="M0 521L16.7 515.7C33.3 510.3 66.7 499.7 100 494.7C133.3 489.7 166.7 490.3 200 495.2C233.3 500 266.7 509 300 507.2C333.3 505.3 366.7 492.7 400 494C433.3 495.3 466.7 510.7 500 512.2C533.3 513.7 566.7 501.3 600 500C633.3 498.7 666.7 508.3 700 508.8C733.3 509.3 766.7 500.7 800 501.8C833.3 503 866.7 514 883.3 519.5L900 525L900 601L883.3 601C866.7 601 833.3 601 800 601C766.7 601 733.3 601 700 601C666.7 601 633.3 601 600 601C566.7 601 533.3 601 500 601C466.7 601 433.3 601 400 601C366.7 601 333.3 601 300 601C266.7 601 233.3 601 200 601C166.7 601 133.3 601 100 601C66.7 601 33.3 601 16.7 601L0 601Z" fill="#008d9b"></path><path d="M0 538L16.7 540.8C33.3 543.7 66.7 549.3 100 551C133.3 552.7 166.7 550.3 200 550C233.3 549.7 266.7 551.3 300 548.5C333.3 545.7 366.7 538.3 400 538.2C433.3 538 466.7 545 500 550.2C533.3 555.3 566.7 558.7 600 552.7C633.3 546.7 666.7 531.3 700 523.7C733.3 516 766.7 516 800 523.8C833.3 531.7 866.7 547.3 883.3 555.2L900 563L900 601L883.3 601C866.7 601 833.3 601 800 601C766.7 601 733.3 601 700 601C666.7 601 633.3 601 600 601C566.7 601 533.3 601 500 601C466.7 601 433.3 601 400 601C366.7 601 333.3 601 300 601C266.7 601 233.3 601 200 601C166.7 601 133.3 601 100 601C66.7 601 33.3 601 16.7 601L0 601Z" fill="#044b62"></path><path d="M0 568L16.7 566.2C33.3 564.3 66.7 560.7 100 563C133.3 565.3 166.7 573.7 200 576.7C233.3 579.7 266.7 577.3 300 577.5C333.3 577.7 366.7 580.3 400 580.8C433.3 581.3 466.7 579.7 500 573.3C533.3 567 566.7 556 600 551.7C633.3 547.3 666.7 549.7 700 553.3C733.3 557 766.7 562 800 563.8C833.3 565.7 866.7 564.3 883.3 563.7L900 563L900 601L883.3 601C866.7 601 833.3 601 800 601C766.7 601 733.3 601 700 601C666.7 601 633.3 601 600 601C566.7 601 533.3 601 500 601C466.7 601 433.3 601 400 601C366.7 601 333.3 601 300 601C266.7 601 233.3 601 200 601C166.7 601 133.3 601 100 601C66.7 601 33.3 601 16.7 601L0 601Z" fill="#001122"></path></svg>